<?xml version="1.0" encoding="UTF-8"?><svg id="Layer_3" xmlns="http://www.w3.org/2000/svg" viewBox="0 0 3042.2 1294.7"><defs><style>.cls-1,.cls-2{fill:none;}.cls-1,.cls-2,.cls-3{stroke-miterlimit:10;}.cls-1,.cls-3{stroke:#000;stroke-width:3px;}.cls-2{stroke:#d7c13f;stroke-width:6px;}.cls-4,.cls-3{fill:#fff;}</style></defs><rect class="cls-4" width="1729.1" height="1294.7"/><rect class="cls-2" x="220" y="200.1" width="1289.2" height="815.7"/><g><g><path class="cls-1" d="m1330.2,974.2s-60.2,3.8-20-130.1"/><path class="cls-1" d="m1342.7,971.6s53.6-19.7-32.8-127.4l19.3,96.5"/><line class="cls-1" x1="1317" y1="880" x2="1307.2" y2="871.9"/><path class="cls-1" d="m1320,894.6c-4.4-3.4-8.8-6.9-13.3-10.3"/><path class="cls-1" d="m1322.6,909.2c-5.1-4-10.1-8-15.2-12"/><path class="cls-1" d="m1326.2,926.6c-6.6-4.8-13.3-9.6-19.9-14.4"/><line class="cls-1" x1="1315.7" y1="873.9" x2="1319.7" y2="863"/><path class="cls-1" d="m1318.7,888.3c2.3-4.8,4.5-9.7,6.8-14.5"/><path class="cls-1" d="m1321.9,904.8c3.2-5.7,6.3-11.4,9.5-17.1"/><path class="cls-1" d="m1325.1,921.5c4.3-7.1,8.5-14.1,12.8-21.2"/><path class="cls-1" d="m1328.2,938.4c5.8-8,11.6-15.9,17.4-23.9"/></g><g><path class="cls-1" d="m1543.8,972.1s-60.9-9.1,7.4-145.1"/><path class="cls-1" d="m1556.8,972.1s57.8-9.5-5.9-145.1l-1.1,108.6"/><line class="cls-1" x1="1550.5" y1="867.3" x2="1542.4" y2="856.3"/><path class="cls-1" d="m1550.4,883.7c-3.7-4.7-7.4-9.4-11.1-14.1"/><path class="cls-1" d="m1550,900.2c-4.2-5.5-8.4-10.9-12.7-16.4"/><path class="cls-1" d="m1549.9,919.7c-5.6-6.7-11.2-13.3-16.8-20"/><line class="cls-1" x1="1550.5" y1="860.5" x2="1556.8" y2="849.4"/><path class="cls-1" d="m1550.5,876.7c3.3-4.7,6.5-9.5,9.8-14.2"/><path class="cls-1" d="m1550.1,895.2c4.4-5.5,8.7-11,13.1-16.5"/><path class="cls-1" d="m1549.8,914c5.7-6.7,11.5-13.4,17.2-20.1"/><path class="cls-1" d="m1549.4,933c7.5-7.3,14.9-14.7,22.4-22"/></g><g><path class="cls-1" d="m1517.9,954.2s20.6-54,131.6,34"/><path class="cls-1" d="m1515.3,966.1s-2.8,54.6,134.2,21.8l-99.4-21.3"/><line class="cls-1" x1="1612.6" y1="979.9" x2="1624.3" y2="974.6"/><path class="cls-1" d="m1597.6,976.8c5.1-2.5,10.1-5,15.2-7.5"/><path class="cls-1" d="m1582.6,973.3c5.9-2.8,11.7-5.7,17.6-8.5"/><path class="cls-1" d="m1564.7,969.6c7.2-3.9,14.5-7.8,21.7-11.7"/><line class="cls-1" x1="1618.9" y1="981.2" x2="1627.8" y2="989"/><path class="cls-1" d="m1604,978.1c3.7,3.9,7.4,7.8,11,11.6"/><path class="cls-1" d="m1587.2,974.4c4.2,5,8.3,10,12.5,15"/><path class="cls-1" d="m1569.9,970.6c5,6.5,10,13,15,19.5"/><path class="cls-1" d="m1552.6,966.6c5.2,8.2,10.5,16.4,15.7,24.6"/></g><g><path class="cls-1" d="m1539.7,965.1s-62.1,23-68.3-139.3"/><path class="cls-1" d="m1551.9,958.3s49.4-38.8-80.9-132.4l55.3,101.9"/><line class="cls-1" x1="1491.6" y1="863.8" x2="1478.2" y2="857.7"/><path class="cls-1" d="m1500,879.2c-5.9-2.5-11.8-5-17.7-7.4"/><path class="cls-1" d="m1508.1,894.7c-6.8-2.9-13.6-5.8-20.4-8.7"/><path class="cls-1" d="m1518.2,913c-8.7-3.3-17.5-6.6-26.2-9.9"/><line class="cls-1" x1="1488" y1="857.4" x2="1488.2" y2="843.9"/><path class="cls-1" d="m1496.4,872.6c.6-6.1,1.3-12.2,1.9-18.3"/><path class="cls-1" d="m1505.7,890c1.3-7.4,2.5-14.7,3.8-22.1"/><path class="cls-1" d="m1515.2,907.7c1.9-9.2,3.9-18.4,5.8-27.7"/><path class="cls-1" d="m1524.6,925.7c3.2-10.7,6.4-21.4,9.6-32.1"/></g><path class="cls-1" d="m1065.5,1076.9s498.8,18.7,420.2-275.3"/><g><path class="cls-1" d="m1507.8,781.8s-70.8-74.5,157.1-184.7"/><path class="cls-1" d="m1525,795.1s85.7,46.5,139.5-198.3l-111.7,142.7"/><line class="cls-1" x1="1623.1" y1="649.8" x2="1623.6" y2="627"/><path class="cls-1" d="m1606.3,671.5c0-10-.2-20-.2-30"/><path class="cls-1" d="m1589,692.8c0-11.6,0-23.1,0-34.7"/><path class="cls-1" d="m1569.1,718.6c-.6-14.6-1.2-29.1-1.9-43.7"/><line class="cls-1" x1="1630" y1="640.8" x2="1649.5" y2="632.6"/><path class="cls-1" d="m1613.5,662.2c9.1-2.9,18.2-5.8,27.3-8.7"/><path class="cls-1" d="m1594.3,686.3c11.3-2.8,22.6-5.6,33.9-8.4"/><path class="cls-1" d="m1574.8,711c14.4-3,28.7-6,43.1-9"/><path class="cls-1" d="m1554.9,735.7c17.3-2.1,34.5-4.2,51.8-6.2"/></g><g><path class="cls-1" d="m1311.9,963s-22.9-52.4,117.3-66.7"/><path class="cls-1" d="m1318.3,973.2s36,40.6,110.7-77.2l-85.6,53.5"/><line class="cls-1" x1="1397.3" y1="915.8" x2="1401.9" y2="904"/><path class="cls-1" d="m1384.4,924c1.9-5.3,3.7-10.5,5.6-15.8"/><path class="cls-1" d="m1371.3,931.8c2.2-6,4.4-12.1,6.6-18.1"/><path class="cls-1" d="m1356,941.5c2.4-7.7,4.9-15.5,7.3-23.2"/><line class="cls-1" x1="1402.6" y1="912.4" x2="1414.4" y2="911.8"/><path class="cls-1" d="m1389.9,920.5c5.3.2,10.6.4,16,.6"/><path class="cls-1" d="m1375.3,929.5c6.4.7,12.9,1.4,19.3,2"/><path class="cls-1" d="m1360.4,938.7c8.1,1.2,16.2,2.3,24.2,3.5"/><path class="cls-1" d="m1345.3,947.8c9.4,2.2,18.9,4.4,28.3,6.6"/></g><g><path class="cls-3" d="m1460.3,744.9s40.9-94.3,231.4,72.5"/><path class="cls-3" d="m1454.8,765.8s-9.3,97,237,51l-175-47.1"/><line class="cls-3" x1="1626.8" y1="799.4" x2="1648" y2="790.9"/><path class="cls-3" d="m1600.3,792.4c9.2-4,18.4-8,27.5-11.9"/><path class="cls-3" d="m1574,784.8c10.6-4.5,21.3-9.1,31.9-13.6"/><path class="cls-3" d="m1542.5,776.5c13.2-6.3,26.3-12.5,39.5-18.8"/><line class="cls-3" x1="1637.9" y1="802.3" x2="1653" y2="817"/><path class="cls-3" d="m1611.7,795.4c6.2,7.2,12.5,14.5,18.7,21.7"/><path class="cls-3" d="m1582,787.2c7,9.3,14,18.6,21,27.9"/><path class="cls-3" d="m1551.6,778.8c8.4,12,16.7,24.1,25.1,36.1"/><path class="cls-3" d="m1521.2,770.2c8.7,15.1,17.3,30.2,26,45.3"/></g><path class="cls-1" d="m1286.1,1053.2c5.6-1.8,28-9.6,41.3-33,9.1-16.1,9.5-31.5,9.2-38.5"/><g><path class="cls-3" d="m1546.5,927.5s23.9-64.3,46.6-26.1c22.7,38.1,13,47.6,13,47.6,0,0-2.7,18.2-49.4.8"/><path class="cls-3" d="m1508.9,890.6c-6.3-7.6-8.6-15.4-5.7-20.1,1.3-2.2,3.7-3.8,7.8-4.7,29.7-6.4,38.1,6.6,38.1,6.6,2.2,2.1,5,5.3,6.9,9.9,5.3,12.2.4,24.1-.8,26.7"/><path class="cls-3" d="m1571.9,987.6c1.4,13.2,6.2,22.1,11.8,22.8,3.5.4,6.7-2.3,9.1-5,20.1-22.1,13.8-32.9,13.8-32.9-2.3-3-5.9-6.9-11.1-10.3-10.1-6.6-20.3-7.4-25.1-7.4"/><path class="cls-3" d="m1533.8,938.4c-4.4,9-15.5,16.3-22.4,13.3-5.6-2.5-7.1-11-7.5-19.1-2.1-40.3,5.1-42,5.1-42,.2-.4.7-1.1,1.6-1.5,5.4-2.2,18.9,11.4,23.5,27.5,1.5,5.2,3.8,13.5-.3,21.8Z"/><path class="cls-3" d="m1531.1,947.3c-9.7,1.2-20.4,8.6-20.1,15.9.3,6.4,8.7,11,17,14.3,40,16.2,43.9,10.1,43.9,10.1.5-.1,1.5-.4,2.1-1.1,3.7-4.5-6.3-21.9-20.8-31.7-5.4-3.7-12.7-8.6-22.1-7.5Z"/><path class="cls-3" d="m1532.5,941.4s57.6-44.6,50.7-82"/><path class="cls-3" d="m1543.1,948.8s76-35.7,96.4-12.5"/><path class="cls-3" d="m1531.1,947.3s81.4-55.4,96-51.7"/><path class="cls-3" d="m1630.3,895.3c-.3,4.4-.9,4.8-1.1,4.8-.7,0-1.5-2.8-1.8-4.1-.4-1.9-.8-5.2,0-5.6.3-.1.9,0,2.1,1.7"/><path class="cls-3" d="m1641.9,938.5c-3.1,3.2-3.8,3.1-4,3-.6-.4.7-3.1,1.3-4.3.9-1.7,2.8-4.5,3.7-4.2.3.1.6.7.5,2.7"/><path class="cls-3" d="m1583.9,856.1c4.3.9,4.7,1.5,4.6,1.7,0,.7-3,1.1-4.3,1.3-1.9.2-5.3.2-5.5-.8,0-.3.2-.9,2-1.9"/></g><g><path class="cls-3" d="m1469.5,722.6s-84.7-85.5-6.9-93.3c77.9-7.9,85.7,14.5,85.7,14.5,0,0,27,17.8-35.7,79"/><path class="cls-3" d="m1382.5,755c-16.8,4.5-31,2.4-36.4-5.8-2.5-3.7-3.3-8.6-1.6-15.8,12.1-51.9,39.1-55.6,39.1-55.6,5-2,12.3-4,21-3.7,23.5.6,38.8,17.1,42.1,20.9"/><path class="cls-3" d="m1584.5,726.6c22.2,7.5,40,6.5,45.2-2,3.3-5.3,1.3-12.4-1.1-18.1-20.2-48.2-42.1-46.2-42.1-46.2-6.6,1.5-15.5,4.3-24.8,10.1-18.1,11.2-27,26.8-30.6,34.3"/><path class="cls-3" d="m1477.5,750.9c11,13.7,14.3,36.7,4.4,45.4-8.1,7.1-22.9,3.2-36-2.1-65.9-26.4-63.3-39.1-63.3-39.1-.4-.6-1.2-2-1.2-3.7.5-10.2,32.4-21.7,61.4-17,9.5,1.5,24.5,3.9,34.7,16.6Z"/><path class="cls-3" d="m1489.6,761.7c-5.4,16.3-1.5,38.8,10.4,43.7,10.4,4.3,24-5.8,35.6-16.4,55.8-51.6,48.9-62.4,48.9-62.4.2-.9.5-2.6-.2-4.2-4.4-9.2-39.6-6.1-66.2,9.6-10,5.9-23.2,13.8-28.5,29.7Z"/><path class="cls-3" d="m1481.3,755s-28.1-124.4-93.1-141.1"/><path class="cls-3" d="m1500.9,743.6s0-147.1,52.2-162.4"/><path class="cls-3" d="m1489.6,761.7s-27.5-170.3-10.7-190.6"/><path class="cls-3" d="m1480.7,565.7c6.8,3.7,7,4.9,6.9,5.3-.4,1.2-5.6.3-7.9-.2-3.3-.7-9-2.5-8.8-4.2,0-.6.9-1.4,4.3-2.2"/><path class="cls-3" d="m1558.4,579.1c2.8,7.3,2.1,8.3,1.8,8.5-1.1.6-4.5-3.4-5.9-5.2-2.1-2.7-5.2-7.7-4-8.9.4-.4,1.6-.5,4.6,1.1"/><path class="cls-3" d="m1383.4,610.5c4.6-6.3,5.8-6.3,6.2-6.1,1.1.6-.4,5.6-1.2,7.8-1.2,3.2-3.7,8.5-5.4,8.2-.6-.1-1.3-1-1.6-4.5"/></g><g><path class="cls-3" d="m1329.9,945.4s-35.8-36.2-2.9-39.5c32.9-3.3,36.3,6.1,36.3,6.1,0,0,11.4,7.5-15.1,33.4"/><path class="cls-3" d="m1293.2,959.2c-7.1,1.9-13.1,1-15.4-2.4-1-1.6-1.4-3.6-.7-6.7,5.1-22,16.5-23.5,16.5-23.5,2.1-.8,5.2-1.7,8.9-1.6,9.9.3,16.4,7.2,17.8,8.9"/><path class="cls-3" d="m1378.6,947.1c9.4,3.2,16.9,2.8,19.1-.8,1.4-2.2.5-5.2-.5-7.6-8.6-20.4-17.8-19.5-17.8-19.5-2.8.6-6.5,1.8-10.5,4.3-7.6,4.7-11.4,11.3-13,14.5"/><path class="cls-3" d="m1333.3,957.4c4.7,5.8,6.1,15.5,1.9,19.2-3.4,3-9.7,1.3-15.3-.9-27.9-11.2-26.8-16.5-26.8-16.5-.2-.3-.5-.9-.5-1.6.2-4.3,13.7-9.2,26-7.2,4,.6,10.3,1.7,14.7,7Z"/><path class="cls-3" d="m1338.4,962c-2.3,6.9-.6,16.4,4.4,18.5,4.4,1.8,10.2-2.4,15.1-7,23.6-21.8,20.7-26.4,20.7-26.4,0-.4.2-1.1-.1-1.8-1.9-3.9-16.8-2.6-28,4.1-4.2,2.5-9.8,5.8-12,12.6Z"/><path class="cls-3" d="m1334.9,959.2s-11.9-52.6-39.4-59.7"/><path class="cls-3" d="m1343.3,954.3s0-62.2,22.1-68.7"/><path class="cls-3" d="m1338.4,962s-11.6-72-4.5-80.7"/><path class="cls-3" d="m1334.7,879c2.9,1.6,3,2.1,2.9,2.3-.2.5-2.4.1-3.3,0-1.4-.3-3.8-1.1-3.7-1.8,0-.3.4-.6,1.8-.9"/><path class="cls-3" d="m1367.6,884.7c1.2,3.1.9,3.5.7,3.6-.5.3-1.9-1.4-2.5-2.2-.9-1.1-2.2-3.3-1.7-3.8.2-.2.7-.2,2,.5"/><path class="cls-3" d="m1293.5,898c2-2.7,2.5-2.7,2.6-2.6.5.2-.2,2.4-.5,3.3-.5,1.3-1.6,3.6-2.3,3.5-.3,0-.5-.4-.7-1.9"/></g><path class="cls-1" d="m1517.9,954.2c-21.1,15.4-48.2,32.1-81.7,46.2-16.4,6.9-32,12.1-46.3,16.2"/></g><g><g><path class="cls-1" d="m425.1,971.6s64.3,3.8,21.4-130.1"/><path class="cls-1" d="m411.8,969s-57.3-19.7,35.1-127.4l-20.6,96.5"/><line class="cls-1" x1="439.2" y1="877.4" x2="449.7" y2="869.2"/><path class="cls-1" d="m436,891.9c4.7-3.4,9.4-6.9,14.2-10.3"/><path class="cls-1" d="m433.2,906.6c5.4-4,10.8-8,16.3-12"/><path class="cls-1" d="m429.4,923.9c7.1-4.8,14.2-9.6,21.2-14.4"/><line class="cls-1" x1="440.6" y1="871.3" x2="436.3" y2="860.3"/><path class="cls-1" d="m437.4,885.7c-2.4-4.8-4.8-9.7-7.2-14.5"/><path class="cls-1" d="m434,902.1c-3.4-5.7-6.7-11.4-10.1-17.1"/><path class="cls-1" d="m430.6,918.9c-4.5-7.1-9.1-14.1-13.6-21.2"/><path class="cls-1" d="m427.2,935.8c-6.2-8-12.4-15.9-18.6-23.9"/></g><g><path class="cls-1" d="m197,969.4s65.1-9.1-7.9-145.1"/><path class="cls-1" d="m183.1,969.4s-61.7-9.5,6.4-145.1l1.1,108.6"/><line class="cls-1" x1="189.8" y1="864.7" x2="198.5" y2="853.7"/><path class="cls-1" d="m189.9,881.1c3.9-4.7,7.9-9.4,11.8-14.1"/><path class="cls-1" d="m190.4,897.5c4.5-5.5,9-10.9,13.5-16.4"/><path class="cls-1" d="m190.5,917c6-6.7,12-13.3,18-20"/><line class="cls-1" x1="189.8" y1="857.8" x2="183.1" y2="846.8"/><path class="cls-1" d="m189.9,874c-3.5-4.7-7-9.5-10.5-14.2"/><path class="cls-1" d="m190.2,892.5c-4.7-5.5-9.3-11-14-16.5"/><path class="cls-1" d="m190.5,911.4c-6.1-6.7-12.3-13.4-18.4-20.1"/><path class="cls-1" d="m191,930.3c-8-7.3-15.9-14.7-23.9-22"/></g><g><path class="cls-1" d="m224.7,951.5s-22-54-140.6,34"/><path class="cls-1" d="m227.4,963.4s3,54.6-143.4,21.8l106.1-21.3"/><line class="cls-1" x1="123.5" y1="977.3" x2="111" y2="971.9"/><path class="cls-1" d="m139.6,974.1c-5.4-2.5-10.8-5-16.2-7.5"/><path class="cls-1" d="m155.5,970.6c-6.2-2.8-12.5-5.7-18.7-8.5"/><path class="cls-1" d="m174.6,966.9c-7.7-3.9-15.4-7.8-23.2-11.7"/><line class="cls-1" x1="116.8" y1="978.6" x2="107.3" y2="986.4"/><path class="cls-1" d="m132.7,975.5c-3.9,3.9-7.9,7.8-11.8,11.6"/><path class="cls-1" d="m150.7,971.7c-4.4,5-8.9,10-13.3,15"/><path class="cls-1" d="m169.1,967.9c-5.3,6.5-10.7,13-16,19.5"/><path class="cls-1" d="m187.6,964c-5.6,8.2-11.2,16.4-16.8,24.6"/></g><g><path class="cls-1" d="m201.4,962.4s66.3,23,73-139.3"/><path class="cls-1" d="m188.4,955.7s-52.8-38.8,86.4-132.4l-59.1,101.9"/><line class="cls-1" x1="252.8" y1="861.1" x2="267" y2="855.1"/><path class="cls-1" d="m243.7,876.5c6.3-2.5,12.6-5,19-7.4"/><path class="cls-1" d="m235.1,892.1c7.3-2.9,14.5-5.8,21.8-8.7"/><path class="cls-1" d="m224.4,910.3c9.3-3.3,18.7-6.6,28-9.9"/><line class="cls-1" x1="256.6" y1="854.7" x2="256.4" y2="841.2"/><path class="cls-1" d="m247.6,869.9c-.7-6.1-1.3-12.2-2-18.3"/><path class="cls-1" d="m237.7,887.3c-1.3-7.4-2.7-14.7-4-22.1"/><path class="cls-1" d="m227.6,905.1c-2.1-9.2-4.1-18.4-6.2-27.7"/><path class="cls-1" d="m217.5,923c-3.4-10.7-6.9-21.4-10.3-32.1"/></g><path class="cls-1" d="m707.8,1074.2s-532.7,18.7-448.7-275.3"/><g><path class="cls-1" d="m235.4,779.2s75.7-74.5-167.8-184.7"/><path class="cls-1" d="m217.1,792.4s-91.5,46.5-149-198.3l119.3,142.7"/><line class="cls-1" x1="112.3" y1="647.2" x2="111.8" y2="624.3"/><path class="cls-1" d="m130.3,668.9c0-10,.2-20,.3-30"/><path class="cls-1" d="m148.7,690.1c0-11.6,0-23.1,0-34.7"/><path class="cls-1" d="m170,715.9c.7-14.6,1.3-29.1,2-43.7"/><line class="cls-1" x1="104.9" y1="638.1" x2="84.1" y2="629.9"/><path class="cls-1" d="m122.6,659.5c-9.7-2.9-19.4-5.8-29.2-8.7"/><path class="cls-1" d="m143.1,683.7c-12.1-2.8-24.1-5.6-36.2-8.4"/><path class="cls-1" d="m163.9,708.3c-15.3-3-30.7-6-46-9"/><path class="cls-1" d="m185.1,733c-18.4-2.1-36.9-4.2-55.3-6.2"/></g><g><path class="cls-1" d="m444.7,960.3s24.5-52.4-125.3-66.7"/><path class="cls-1" d="m437.8,970.5s-38.4,40.6-118.2-77.2l91.4,53.5"/><line class="cls-1" x1="353.5" y1="913.2" x2="348.6" y2="901.3"/><path class="cls-1" d="m367.3,921.3c-2-5.3-4-10.5-6-15.8"/><path class="cls-1" d="m381.2,929.2c-2.3-6-4.7-12.1-7-18.1"/><path class="cls-1" d="m397.6,938.9c-2.6-7.7-5.2-15.5-7.8-23.2"/><line class="cls-1" x1="347.7" y1="909.8" x2="335.2" y2="909.2"/><path class="cls-1" d="m361.3,917.8c-5.7.2-11.4.4-17,.6"/><path class="cls-1" d="m377,926.8c-6.9.7-13.8,1.4-20.7,2"/><path class="cls-1" d="m392.9,936c-8.6,1.2-17.3,2.3-25.9,3.5"/><path class="cls-1" d="m409,945.2c-10.1,2.2-20.1,4.4-30.2,6.6"/></g><g><path class="cls-3" d="m286.2,742.2s-43.7-94.3-247.1,72.5"/><path class="cls-3" d="m292,763.2s10,97-253.1,51l186.9-47.1"/><line class="cls-3" x1="108.3" y1="796.7" x2="85.7" y2="788.3"/><path class="cls-3" d="m136.7,789.8c-9.8-4-19.6-8-29.4-11.9"/><path class="cls-3" d="m164.8,782.1c-11.4-4.5-22.7-9.1-34.1-13.6"/><path class="cls-3" d="m198.4,773.9c-14.1-6.3-28.1-12.5-42.2-18.8"/><line class="cls-3" x1="96.5" y1="799.6" x2="80.4" y2="814.3"/><path class="cls-3" d="m124.5,792.8c-6.7,7.2-13.3,14.5-20,21.7"/><path class="cls-3" d="m156.2,784.5c-7.5,9.3-14.9,18.6-22.4,27.9"/><path class="cls-3" d="m188.6,776.2c-8.9,12-17.9,24.1-26.8,36.1"/><path class="cls-3" d="m221.2,767.6c-9.2,15.1-18.5,30.2-27.7,45.3"/></g><path class="cls-1" d="m472.2,1050.6c-6-1.8-29.9-9.6-44.1-33-9.8-16.1-10.1-31.5-9.8-38.5"/><g><path class="cls-3" d="m194.1,924.8s-25.5-64.3-49.8-26.1c-24.2,38.1-13.9,47.6-13.9,47.6,0,0,2.9,18.2,52.7.8"/><path class="cls-3" d="m234.2,888c6.8-7.6,9.2-15.4,6.1-20.1-1.4-2.2-3.9-3.8-8.3-4.7-31.7-6.4-40.7,6.6-40.7,6.6-2.4,2.1-5.3,5.3-7.4,9.9-5.6,12.2-.4,24.1.8,26.7"/><path class="cls-3" d="m167,985c-1.5,13.2-6.6,22.1-12.6,22.8-3.8.4-7.2-2.3-9.7-5-21.4-22.1-14.7-32.9-14.7-32.9,2.5-3,6.3-6.9,11.9-10.3,10.8-6.6,21.7-7.4,26.8-7.4"/><path class="cls-3" d="m207.7,935.8c4.7,9,16.6,16.3,23.9,13.3,6-2.5,7.6-11,8-19.1,2.2-40.3-5.4-42-5.4-42-.2-.4-.8-1.1-1.8-1.5-5.7-2.2-20.2,11.4-25.1,27.5-1.6,5.2-4.1,13.5.3,21.8Z"/><path class="cls-3" d="m210.6,944.6c10.4,1.2,21.8,8.6,21.5,15.9-.3,6.4-9.3,11-18.2,14.3-42.7,16.2-46.9,10.1-46.9,10.1-.6-.1-1.6-.4-2.2-1.1-3.9-4.5,6.7-21.9,22.2-31.7,5.8-3.7,13.5-8.6,23.6-7.5Z"/><path class="cls-3" d="m209,938.8s-61.5-44.6-54.1-82"/><path class="cls-3" d="m197.7,946.1s-81.2-35.7-103-12.5"/><path class="cls-3" d="m210.6,944.6s-87-55.4-102.5-51.7"/><path class="cls-3" d="m104.7,892.6c.3,4.4.9,4.8,1.2,4.8.8,0,1.6-2.8,1.9-4.1.4-1.9.9-5.2,0-5.6-.3-.1-1,0-2.3,1.7"/><path class="cls-3" d="m92.2,935.8c3.3,3.2,4.1,3.1,4.3,3,.6-.4-.7-3.1-1.4-4.3-1-1.7-2.9-4.5-3.9-4.2-.3.1-.7.7-.6,2.7"/><path class="cls-3" d="m154.2,853.4c-4.6.9-5,1.5-5,1.7,0,.7,3.2,1.1,4.6,1.3,2.1.2,5.7.2,5.9-.8,0-.3-.2-.9-2.1-1.9"/></g><g><path class="cls-3" d="m276.4,719.9s90.5-85.5,7.3-93.3c-83.1-7.9-91.5,14.5-91.5,14.5,0,0-28.9,17.8,38.1,79"/><path class="cls-3" d="m369.2,752.4c18,4.5,33.1,2.4,38.9-5.8,2.6-3.7,3.5-8.6,1.7-15.8-12.9-51.9-41.8-55.6-41.8-55.6-5.4-2-13.1-4-22.4-3.7-25.1.6-41.4,17.1-45,20.9"/><path class="cls-3" d="m153.5,723.9c-23.7,7.5-42.7,6.5-48.3-2-3.5-5.3-1.4-12.4,1.2-18.1,21.6-48.2,45-46.2,45-46.2,7,1.5,16.5,4.3,26.5,10.1,19.3,11.2,28.8,26.8,32.7,34.3"/><path class="cls-3" d="m267.9,748.2c-11.8,13.7-15.3,36.7-4.7,45.4,8.7,7.1,24.4,3.2,38.5-2.1,70.3-26.4,67.6-39.1,67.6-39.1.5-.6,1.3-2,1.2-3.7-.5-10.2-34.6-21.7-65.6-17-10.1,1.5-26.1,3.9-37,16.6Z"/><path class="cls-3" d="m254.9,759c5.7,16.3,1.6,38.8-11.1,43.7-11.1,4.3-25.7-5.8-38-16.4-59.6-51.6-52.3-62.4-52.3-62.4-.2-.9-.6-2.6.3-4.2,4.7-9.2,42.3-6.1,70.7,9.6,10.7,5.9,24.8,13.8,30.4,29.7Z"/><path class="cls-3" d="m263.7,752.4s30-124.4,99.4-141.1"/><path class="cls-3" d="m242.8,740.9s0-147.1-55.8-162.4"/><path class="cls-3" d="m254.9,759s29.4-170.3,11.4-190.6"/><path class="cls-3" d="m264.4,563c-7.3,3.7-7.5,4.9-7.4,5.3.4,1.2,6,.3,8.4-.2,3.5-.7,9.6-2.5,9.4-4.2,0-.6-.9-1.4-4.6-2.2"/><path class="cls-3" d="m181.4,576.4c-3,7.3-2.3,8.3-1.9,8.5,1.2.6,4.8-3.4,6.3-5.2,2.2-2.7,5.5-7.7,4.2-8.9-.5-.4-1.7-.5-5,1.1"/><path class="cls-3" d="m368.3,607.8c-4.9-6.3-6.2-6.3-6.6-6.1-1.2.6.5,5.6,1.3,7.8,1.2,3.2,4,8.5,5.7,8.2.6-.1,1.4-1,1.7-4.5"/></g><g><path class="cls-3" d="m425.4,942.8s38.3-36.2,3.1-39.5-38.7,6.1-38.7,6.1c0,0-12.2,7.5,16.1,33.4"/><path class="cls-3" d="m464.7,956.5c7.6,1.9,14,1,16.5-2.4,1.1-1.6,1.5-3.6.7-6.7-5.5-22-17.7-23.5-17.7-23.5-2.3-.8-5.5-1.7-9.5-1.6-10.6.3-17.5,7.2-19,8.9"/><path class="cls-3" d="m373.4,944.5c-10,3.2-18.1,2.8-20.4-.8-1.5-2.2-.6-5.2.5-7.6,9.1-20.4,19-19.5,19-19.5,3,.6,7,1.8,11.2,4.3,8.2,4.7,12.2,11.3,13.8,14.5"/><path class="cls-3" d="m421.8,954.7c-5,5.8-6.5,15.5-2,19.2,3.7,3,10.3,1.3,16.3-.9,29.8-11.2,28.6-16.5,28.6-16.5.2-.3.6-.9.5-1.6-.2-4.3-14.6-9.2-27.7-7.2-4.3.6-11.1,1.7-15.7,7Z"/><path class="cls-3" d="m416.3,959.3c2.4,6.9.7,16.4-4.7,18.5-4.7,1.8-10.9-2.4-16.1-7-25.2-21.8-22.1-26.4-22.1-26.4-.1-.4-.2-1.1.1-1.8,2-3.9,17.9-2.6,29.9,4.1,4.5,2.5,10.5,5.8,12.9,12.6Z"/><path class="cls-3" d="m420,956.5s12.7-52.6,42-59.7"/><path class="cls-3" d="m411.2,951.7s0-62.2-23.6-68.7"/><path class="cls-3" d="m416.3,959.3s12.4-72,4.8-80.7"/><path class="cls-3" d="m420.3,876.4c-3.1,1.6-3.2,2.1-3.1,2.3.2.5,2.5.1,3.6,0,1.5-.3,4-1.1,4-1.8,0-.3-.4-.6-1.9-.9"/><path class="cls-3" d="m385.2,882.1c-1.3,3.1-1,3.5-.8,3.6.5.3,2-1.4,2.7-2.2.9-1.1,2.3-3.3,1.8-3.8-.2-.2-.7-.2-2.1.5"/><path class="cls-3" d="m464.3,895.3c-2.1-2.7-2.6-2.7-2.8-2.6-.5.2.2,2.4.6,3.3.5,1.3,1.7,3.6,2.4,3.5.3,0,.6-.4.7-1.9"/></g><path class="cls-1" d="m224.7,951.5c22.5,15.4,51.5,32.1,87.2,46.2,17.5,6.9,34.1,12.1,49.5,16.2"/></g><g><path class="cls-1" d="m884.6,1200.3s-15.9,29.4,0,52"/><path class="cls-1" d="m884.6,1200.3s14.8,29.4,0,52"/></g><g><path class="cls-1" d="m703.6,1075.9c.2,1.4,3.2,20.4,20,28.2,14.5,6.7,32.9,2.1,44.1-11.8,8.2,27.5,18.9,34.9,26.8,37.7,8.4,3,19.3,2.5,33.3-4.6,12.5-6.3,22.2-6.9,29.6-4.1,4.6,3.9,11.5,10.7,17,21,7.2,13.5,8.1,26.1,8.2,32.7"/><path class="cls-1" d="m1066.1,1076c-.2,1.4-3.3,20.4-20.4,28.2-14.8,6.7-33.6,2.1-45.1-11.8-8.4,27.5-19.3,34.9-27.4,37.7-8.6,3-19.7,2.5-34-4.6-12.8-6.3-22.6-6.9-30.3-4.1-4.7,3.9-11.8,10.7-17.4,21-7.3,13.5-8.3,26.1-8.4,32.7"/></g></svg>